<?xml version="1.0" standalone="no"?>
<!DOCTYPE svg PUBLIC "-//W3C//DTD SVG 20010904//EN"
 "http://www.w3.org/TR/2001/REC-SVG-20010904/DTD/svg10.dtd">
<svg version="1.0" xmlns="http://www.w3.org/2000/svg"
 width="300.000000pt" height="300.000000pt" viewBox="0 0 300.000000 300.000000"
 preserveAspectRatio="xMidYMid meet">
<metadata>
Created by potrace 1.11, written by Peter Selinger 2001-2013
</metadata>
<g transform="translate(0.000000,300.000000) scale(0.100000,-0.100000)"
fill="#000000" stroke="none">
<path d="M640 429 c0 -10 -35 -248 -45 -301 -4 -25 -2 -28 24 -28 32 0 34 6
47 130 4 36 9 69 11 73 3 4 25 -24 50 -63 25 -38 49 -70 54 -70 5 0 30 32 56
72 l48 71 14 -106 13 -107 29 0 c16 0 29 3 29 8 0 8 -37 252 -45 300 -8 44
-19 34 -87 -74 -29 -46 -55 -84 -58 -84 -3 1 -31 43 -64 95 -53 87 -76 112
-76 84z"/>
<path d="M1124 421 c-58 -26 -87 -72 -92 -142 -7 -101 53 -174 155 -185 118
-13 214 100 183 215 -29 109 -140 160 -246 112z m156 -66 c76 -72 28 -205 -74
-208 -71 -2 -116 46 -116 123 0 52 13 76 53 101 43 27 99 20 137 -16z"/>
<path d="M1488 425 c-50 -28 -63 -84 -29 -126 10 -13 47 -37 82 -54 53 -25 64
-34 64 -55 0 -16 -9 -29 -26 -39 -23 -13 -32 -12 -75 2 -46 15 -50 15 -62 -1
-16 -21 3 -37 62 -53 110 -30 209 65 147 142 -10 13 -47 37 -82 54 -53 25 -64
34 -64 55 0 34 42 49 92 31 33 -12 38 -12 50 4 11 16 10 20 -9 34 -31 21 -117
25 -150 6z"/>
<path d="M0 265 l0 -165 100 0 100 0 0 25 c0 24 -2 25 -70 25 l-70 0 0 140 0
140 -30 0 -30 0 0 -165z"/>
<path d="M252 343 c-5 -129 4 -178 39 -212 55 -55 153 -50 204 10 24 29 25 36
25 160 l0 129 -25 0 -25 0 0 -107 c0 -118 -10 -151 -52 -170 -34 -17 -86 1
-99 34 -5 13 -9 74 -9 134 l0 109 -28 0 -27 0 -3 -87z"/>
<path d="M1710 405 c0 -23 4 -25 45 -25 l45 0 0 -140 0 -140 30 0 30 0 0 140
0 140 50 0 c47 0 50 2 50 25 l0 25 -125 0 -125 0 0 -25z"/>
<path d="M2022 294 l3 -136 32 -28 c64 -57 165 -48 210 19 21 31 23 45 23 157
l0 124 -30 0 -30 0 0 -119 c0 -99 -3 -122 -18 -141 -23 -28 -83 -31 -112 -5
-18 16 -20 30 -20 142 l0 123 -31 0 -31 0 4 -136z"/>
<path d="M2380 265 l0 -165 82 0 c61 0 92 5 123 20 111 54 114 234 5 290 -30
15 -59 20 -125 20 l-85 0 0 -165z m201 86 c23 -24 29 -38 29 -75 0 -87 -38
-126 -125 -126 l-45 0 0 115 0 115 56 0 c48 0 59 -4 85 -29z"/>
<path d="M2706 418 c4 -7 32 -50 61 -96 51 -80 53 -85 53 -152 0 -68 1 -70 25
-70 23 0 25 4 26 53 2 86 4 91 63 181 31 48 56 89 56 91 0 3 -14 5 -30 5 -27
0 -36 -8 -71 -65 -23 -36 -43 -65 -44 -65 -2 0 -20 29 -41 65 -35 60 -41 65
-72 65 -24 0 -31 -4 -26 -12z"/>
</g>
</svg>
